<?xml version="1.0" encoding="utf-8"?>
<!-- Generator: Adobe Illustrator 24.1.0, SVG Export Plug-In . SVG Version: 6.00 Build 0)  -->
<svg version="1.1" id="Layer_1" xmlns="http://www.w3.org/2000/svg" xmlns:xlink="http://www.w3.org/1999/xlink" x="0px" y="0px"
	 viewBox="0 0 129.35 130.72" style="enable-background:new 0 0 129.35 130.72;" xml:space="preserve">
<style type="text/css">
	.st0{fill:#FFDD00;}
</style>
<g>
	<g>
		<g>
			<path class="st0" d="M46.48,74.75H9.44c-4.84,0-9.46,4.04-9.46,9.03v37.9c0,4.99,4.62,9.03,9.46,9.03h37.04
				c4.84,0,9.46-4.04,9.46-9.03v-37.9C55.94,78.8,51.32,74.75,46.48,74.75 M46.48,121.68H9.44v-37.9h37.04V121.68z"/>
		</g>
		<g>
			<path class="st0" d="M110.08,102.47l17.84-27.72h-11.35l-13.24,20.6c-0.95,1.43-2.55,2.37-4.36,2.37h-0.84
				c-1.81,0-3.41-0.94-4.36-2.37l-13.2-20.6H69.23l17.85,27.85l-19.04,28.12h11.54l14.61-21.59c0.95-1.43,2.55-2.37,4.36-2.37h0.21
				c1.81,0,3.4,0.94,4.36,2.37l14.69,21.59h11.56L110.08,102.47z"/>
		</g>
		<g>
			<path class="st0" d="M24.11,23.02l-5.33,9.02h27.65v14.94H9.46V9.08h41.13l5.35-9.03H9.46C4.62,0.05,0,4.09,0,9.08v37.9
				c0,4.99,4.62,9.03,9.46,9.03h36.98c4.84,0,9.46-4.04,9.46-9.03V23.02H24.11z"/>
		</g>
		<g>
			<path class="st0" d="M116.6,0H75.72v56.05h40.88c4.85,0,9.47-4.05,9.47-9.05V36.42c0-4.99-3-9.05-7.85-9.05
				c4.85,0,7.85-4.05,7.85-9.04V9.05C126.07,4.05,121.44,0,116.6,0 M116.6,43.29c0,2.05-1.62,3.71-3.6,3.71h-27.8V32.05H113
				c1.99,0,3.6,1.66,3.6,3.71V43.29z M116.6,19.29c0,2.05-1.62,3.71-3.6,3.71h-27.8V9.05H113c1.99,0,3.6,1.66,3.6,3.71V19.29z"/>
		</g>
	</g>
</g>
</svg>
